<svg width="161" height="39" viewBox="0 0 161 39" fill="none" xmlns="http://www.w3.org/2000/svg">
<path d="M11.167 1.33203H149.833C155.448 1.33203 160 5.88413 160 11.499V27.499C160 33.1138 155.448 37.665 149.833 37.665H11.167C5.55221 37.665 1.00018 33.1138 1 27.499V11.499C1 5.88413 5.5521 1.33203 11.167 1.33203Z" fill="#FAFAFA"/>
<path d="M11.167 1.33203H149.833C155.448 1.33203 160 5.88413 160 11.499V27.499C160 33.1138 155.448 37.665 149.833 37.665H11.167C5.55221 37.665 1.00018 33.1138 1 27.499V11.499C1 5.88413 5.5521 1.33203 11.167 1.33203Z" stroke="#F5F5F5"/>
<path opacity="0.6" d="M24.5001 32.832C31.8639 32.832 37.8334 26.8625 37.8334 19.4987C37.8334 12.1349 31.8639 6.16536 24.5001 6.16536C17.1363 6.16536 11.1667 12.1349 11.1667 19.4987C11.1667 26.8625 17.1363 32.832 24.5001 32.832Z" fill="#A1A1A1"/>
<path d="M22.745 22.181C22.745 22.0456 22.7241 21.924 22.6825 21.8164C22.6443 21.7053 22.5713 21.6046 22.4637 21.5143C22.3561 21.4206 22.205 21.3286 22.0106 21.2383C21.8161 21.148 21.5644 21.0542 21.2554 20.957C20.9116 20.8459 20.5852 20.7209 20.2762 20.582C19.9706 20.4431 19.6998 20.2817 19.4637 20.0977C19.2311 19.9102 19.047 19.6931 18.9116 19.4466C18.7797 19.2001 18.7137 18.9136 18.7137 18.5872C18.7137 18.2713 18.7831 17.9848 18.922 17.7279C19.0609 17.4674 19.2554 17.2452 19.5054 17.0612C19.7554 16.8737 20.0505 16.7296 20.3908 16.6289C20.7345 16.5282 21.1113 16.4779 21.521 16.4779C22.08 16.4779 22.5679 16.5786 22.9845 16.7799C23.4012 16.9813 23.7241 17.2574 23.9533 17.6081C24.1859 17.9588 24.3022 18.3598 24.3022 18.8112H22.7502C22.7502 18.589 22.7033 18.3945 22.6095 18.2279C22.5193 18.0577 22.3804 17.924 22.1929 17.8268C22.0088 17.7296 21.7762 17.681 21.495 17.681C21.2241 17.681 20.9984 17.7227 20.8179 17.806C20.6373 17.8858 20.5019 17.9952 20.4116 18.1341C20.3213 18.2695 20.2762 18.4223 20.2762 18.5924C20.2762 18.7209 20.3075 18.8372 20.37 18.9414C20.4359 19.0456 20.5331 19.1428 20.6616 19.2331C20.7901 19.3233 20.9481 19.4084 21.1356 19.4883C21.3231 19.5681 21.5401 19.6463 21.7866 19.7227C22.1998 19.8477 22.5627 19.9883 22.8752 20.1445C23.1911 20.3008 23.455 20.4761 23.6668 20.6706C23.8786 20.865 24.0384 21.0855 24.146 21.332C24.2536 21.5786 24.3075 21.8581 24.3075 22.1706C24.3075 22.5004 24.2432 22.7956 24.1147 23.056C23.9863 23.3164 23.8005 23.5369 23.5575 23.7174C23.3144 23.898 23.0245 24.0352 22.6877 24.1289C22.3509 24.2227 21.9741 24.2695 21.5575 24.2695C21.1825 24.2695 20.8127 24.2209 20.4481 24.1237C20.0835 24.023 19.7519 23.872 19.4533 23.6706C19.1581 23.4692 18.922 23.2122 18.745 22.8997C18.5679 22.5872 18.4793 22.2174 18.4793 21.7904H20.047C20.047 22.0265 20.0835 22.2261 20.1564 22.3893C20.2293 22.5525 20.3318 22.6845 20.4637 22.7852C20.5991 22.8858 20.7588 22.9588 20.9429 23.0039C21.1304 23.049 21.3352 23.0716 21.5575 23.0716C21.8283 23.0716 22.0505 23.0334 22.2241 22.957C22.4012 22.8806 22.5314 22.7747 22.6147 22.6393C22.7016 22.5039 22.745 22.3511 22.745 22.181ZM26.9325 16.582V24.1654H25.37V16.582H26.9325ZM29.9533 19.8216V21.0404H26.5054V19.8216H29.9533ZM30.3179 16.582V17.806H26.5054V16.582H30.3179Z" fill="white"/>
<path d="M87.1667 8.83203H52.5C50.2909 8.83203 48.5 10.6229 48.5 12.832C48.5 15.0412 50.2909 16.832 52.5 16.832H87.1667C89.3758 16.832 91.1667 15.0412 91.1667 12.832C91.1667 10.6229 89.3758 8.83203 87.1667 8.83203Z" fill="#DCDCDC"/>
<path d="M143.753 22.1654H54.58C51.2221 22.1654 48.5 23.9562 48.5 26.1654C48.5 28.3745 51.2221 30.1654 54.58 30.1654H143.753C147.111 30.1654 149.833 28.3745 149.833 26.1654C149.833 23.9562 147.111 22.1654 143.753 22.1654Z" fill="#E8E8E8"/>
</svg>
