<svg width="161" height="39" viewBox="0 0 161 39" fill="none" xmlns="http://www.w3.org/2000/svg">
<path d="M11.167 1.33203H149.833C155.448 1.33203 160 5.88413 160 11.499V27.499C160 33.1138 155.448 37.665 149.833 37.665H11.167C5.55221 37.665 1.00018 33.1138 1 27.499V11.499C1 5.88413 5.5521 1.33203 11.167 1.33203Z" fill="#FAFAFA"/>
<path d="M11.167 1.33203H149.833C155.448 1.33203 160 5.88413 160 11.499V27.499C160 33.1138 155.448 37.665 149.833 37.665H11.167C5.55221 37.665 1.00018 33.1138 1 27.499V11.499C1 5.88413 5.5521 1.33203 11.167 1.33203Z" stroke="#F5F5F5"/>
<path opacity="0.6" d="M24.5001 32.832C31.8639 32.832 37.8334 26.8625 37.8334 19.4987C37.8334 12.1349 31.8639 6.16536 24.5001 6.16536C17.1363 6.16536 11.1667 12.1349 11.1667 19.4987C11.1667 26.8625 17.1363 32.832 24.5001 32.832Z" fill="#A1A1A1"/>
<path d="M20.495 22.582L22.2814 16.582H24.021L21.3804 24.1654H20.2345L20.495 22.582ZM18.8491 16.582L20.6304 22.582L20.9012 24.1654H19.745L17.12 16.582H18.8491ZM30.9012 16.582V24.1654H29.3387L26.2918 19.082V24.1654H24.7293V16.582H26.2918L29.3439 21.6706V16.582H30.9012Z" fill="white"/>
<path d="M87.1667 8.83203H52.5C50.2909 8.83203 48.5 10.6229 48.5 12.832C48.5 15.0412 50.2909 16.832 52.5 16.832H87.1667C89.3758 16.832 91.1667 15.0412 91.1667 12.832C91.1667 10.6229 89.3758 8.83203 87.1667 8.83203Z" fill="#DCDCDC"/>
<path d="M143.753 22.1654H54.58C51.2221 22.1654 48.5 23.9562 48.5 26.1654C48.5 28.3745 51.2221 30.1654 54.58 30.1654H143.753C147.111 30.1654 149.833 28.3745 149.833 26.1654C149.833 23.9562 147.111 22.1654 143.753 22.1654Z" fill="#E8E8E8"/>
</svg>
