<svg width="23" height="23" viewBox="0 0 23 23" fill="none" xmlns="http://www.w3.org/2000/svg">
<path fill-rule="evenodd" clip-rule="evenodd" d="M17.5307 4.11403C17.905 3.73978 18.5117 3.73978 18.886 4.11403C19.2603 4.48829 19.2603 5.09507 18.886 5.46932L14.8026 9.55271C15.1398 10.1234 15.3334 10.7891 15.3334 11.5C15.3334 13.6171 13.6171 15.3333 11.5 15.3333C10.7891 15.3333 10.1234 15.1398 9.55272 14.8026L5.46933 18.886C5.09508 19.2602 4.4883 19.2602 4.11404 18.886C3.73979 18.5117 3.73979 17.905 4.11404 17.5307L8.19743 13.4473C7.8602 12.8766 7.66669 12.2109 7.66669 11.5C7.66669 9.38292 9.38293 7.66668 11.5 7.66668C12.2109 7.66668 12.8766 7.86019 13.4473 8.19742L17.5307 4.11403ZM11.9965 9.64826C11.8381 9.60592 11.6717 9.58334 11.5 9.58334C10.4415 9.58334 9.58335 10.4415 9.58335 11.5C9.58335 11.6717 9.60593 11.8381 9.64827 11.9965L11.9965 9.64826ZM11.0036 13.3518C11.1619 13.3941 11.3283 13.4167 11.5 13.4167C12.5586 13.4167 13.4167 12.5586 13.4167 11.5C13.4167 11.3283 13.3941 11.1619 13.3518 11.0036L11.0036 13.3518ZM3.86102 11.4996C3.87139 11.4765 3.88476 11.4484 3.90191 11.415C3.98551 11.2519 4.12267 11.0316 4.31787 10.7691C4.70685 10.246 5.28496 9.61044 6.00967 8.99721C7.47492 7.75739 9.41816 6.70834 11.5 6.70834C12.0293 6.70834 12.4584 6.27928 12.4584 5.75001C12.4584 5.22074 12.0293 4.79168 11.5 4.79168C8.79021 4.79168 6.42095 6.13847 4.77162 7.53406C3.93904 8.23854 3.25934 8.98057 2.77982 9.62544C2.54078 9.94691 2.34103 10.2582 2.19628 10.5406C2.07255 10.782 1.91669 11.1363 1.91669 11.5C1.91669 11.5666 1.92363 11.633 1.9374 11.6982C2.1126 12.5272 2.49028 13.2999 3.03674 13.9475C3.37808 14.352 3.9827 14.4032 4.38719 14.0619C4.79169 13.7205 4.84289 13.1159 4.50155 12.7114C4.20296 12.3576 3.98478 11.9441 3.86102 11.4996ZM18.0782 8.74275C18.4366 8.35328 19.0428 8.32809 19.4323 8.68649C20.1788 9.37341 20.7326 10.2437 21.0387 11.2108C21.0683 11.3044 21.0834 11.4019 21.0834 11.5C21.0834 11.8077 20.9818 12.1259 20.879 12.3807C20.7653 12.6626 20.6042 12.9766 20.4021 13.305C19.9974 13.9626 19.4021 14.7205 18.6163 15.4408C17.0397 16.8861 14.6613 18.2083 11.5 18.2083C11.1706 18.2083 10.8495 18.1937 10.537 18.1664C10.0097 18.1204 9.61956 17.6556 9.66556 17.1284C9.71157 16.6011 10.1763 16.211 10.7036 16.257C10.9622 16.2795 11.2276 16.2917 11.5 16.2917C14.0887 16.2917 16.0228 15.2181 17.3212 14.0279C17.9729 13.4305 18.4557 12.8108 18.7698 12.3005C18.9271 12.0449 19.0355 11.8273 19.1015 11.6637C19.1158 11.6284 19.127 11.5981 19.1358 11.5728C18.9209 11.011 18.5785 10.5055 18.1344 10.0969C17.745 9.73848 17.7198 9.13222 18.0782 8.74275Z" fill="#919592"/>
</svg>
