<svg width="25" height="25" viewBox="0 0 25 25" fill="none" xmlns="http://www.w3.org/2000/svg">
<path d="M11.25 18.0005L13.25 20.0005C13.447 20.1975 13.6808 20.3537 13.9382 20.4603C14.1956 20.5669 14.4714 20.6218 14.75 20.6218C15.0286 20.6218 15.3044 20.5669 15.5618 20.4603C15.8192 20.3537 16.053 20.1975 16.25 20.0005C16.447 19.8035 16.6032 19.5697 16.7098 19.3123C16.8165 19.0549 16.8713 18.7791 16.8713 18.5005C16.8713 18.2219 16.8165 17.9461 16.7098 17.6887C16.6032 17.4313 16.447 17.1975 16.25 17.0005M14.2502 15.0005L16.7502 17.5005C17.1481 17.8983 17.6876 18.1218 18.2502 18.1218C18.8128 18.1218 19.3524 17.8983 19.7502 17.5005C20.1481 17.1027 20.3715 16.5631 20.3715 16.0005C20.3715 15.4379 20.1481 14.8983 19.7502 14.5005L15.8702 10.6205C15.3077 10.0587 14.5452 9.74314 13.7502 9.74314C12.9552 9.74314 12.1927 10.0587 11.6302 10.6205L10.7502 11.5005C10.3524 11.8983 9.81284 12.1218 9.25023 12.1218C8.68762 12.1218 8.14805 11.8983 7.75023 11.5005C7.3524 11.1027 7.12891 10.5631 7.12891 10.0005C7.12891 9.43789 7.3524 8.89833 7.75023 8.5005L10.5602 5.6905C11.4725 4.78065 12.6621 4.20106 13.9409 4.04348C15.2196 3.8859 16.5144 4.15933 17.6202 4.8205L18.0902 5.1005C18.516 5.35749 19.0223 5.44662 19.5102 5.3505L21.2502 5.0005M21.25 4.00049L22.25 15.0005H20.25M3.25 4.00049L2.25 15.0005L8.75 21.5005C9.14782 21.8983 9.68739 22.1218 10.25 22.1218C10.8126 22.1218 11.3522 21.8983 11.75 21.5005C12.1478 21.1027 12.3713 20.5631 12.3713 20.0005C12.3713 19.4379 12.1478 18.8983 11.75 18.5005M3.25 5.00049H11.25" stroke="#326942" stroke-width="1.7" stroke-linecap="round" stroke-linejoin="round"/>
</svg>
