<svg width="25" height="25" viewBox="0 0 25 25" fill="none" xmlns="http://www.w3.org/2000/svg">
<path d="M3.75 4.81091L14.25 3.81091L21.75 5.31091L22.25 12.8109L19.25 17.8109L9.75 22.3109L2.25 15.3109L3.75 4.81091Z" fill="#93C29C"/>
<path d="M11.25 17.8114L13.25 19.8114C13.447 20.0084 13.6808 20.1646 13.9382 20.2712C14.1956 20.3779 14.4714 20.4327 14.75 20.4327C15.0286 20.4327 15.3044 20.3779 15.5618 20.2712C15.8192 20.1646 16.053 20.0084 16.25 19.8114C16.447 19.6144 16.6032 19.3806 16.7098 19.1232C16.8165 18.8658 16.8713 18.59 16.8713 18.3114C16.8713 18.0328 16.8165 17.757 16.7098 17.4996C16.6032 17.2422 16.447 17.0084 16.25 16.8114M14.2502 14.8114L16.7502 17.3114C17.1481 17.7092 17.6876 17.9327 18.2502 17.9327C18.8128 17.9327 19.3524 17.7092 19.7502 17.3114C20.1481 16.9136 20.3715 16.374 20.3715 15.8114C20.3715 15.2488 20.1481 14.7092 19.7502 14.3114L15.8702 10.4314C15.3077 9.86961 14.5452 9.55406 13.7502 9.55406C12.9552 9.55406 12.1927 9.86961 11.6302 10.4314L10.7502 11.3114C10.3524 11.7092 9.81284 11.9327 9.25023 11.9327C8.68762 11.9327 8.14805 11.7092 7.75023 11.3114C7.3524 10.9136 7.12891 10.374 7.12891 9.81142C7.12891 9.24881 7.3524 8.70924 7.75023 8.31142L10.5602 5.50142C11.4725 4.59156 12.6621 4.01197 13.9409 3.85439C15.2196 3.69681 16.5144 3.97025 17.6202 4.63142L18.0902 4.91142C18.516 5.1684 19.0223 5.25753 19.5102 5.16142L21.2502 4.81142M21.25 3.8114L22.25 14.8114H20.25M3.25 3.8114L2.25 14.8114L8.75 21.3114C9.14782 21.7092 9.68739 21.9327 10.25 21.9327C10.8126 21.9327 11.3522 21.7092 11.75 21.3114C12.1478 20.9136 12.3713 20.374 12.3713 19.8114C12.3713 19.2488 12.1478 18.7092 11.75 18.3114M3.25 4.8114H11.25" stroke="#326942" stroke-width="1.7" stroke-linecap="round" stroke-linejoin="round"/>
</svg>
