<svg width="25" height="25" viewBox="0 0 25 25" fill="none" xmlns="http://www.w3.org/2000/svg">
<path d="M3.75 9.5L12.75 2.5L21.75 9.5V20.5C21.75 21.0304 21.5393 21.5391 21.1642 21.9142C20.7891 22.2893 20.2804 22.5 19.75 22.5H5.75C5.21957 22.5 4.71086 22.2893 4.33579 21.9142C3.96071 21.5391 3.75 21.0304 3.75 20.5V9.5Z" fill="#93C29C"/>
<path d="M9.75 22.5V12.5H15.75V22.5" fill="#93C29C"/>
<path d="M9.75 22.5V12.5H15.75V22.5M3.75 9.5L12.75 2.5L21.75 9.5V20.5C21.75 21.0304 21.5393 21.5391 21.1642 21.9142C20.7891 22.2893 20.2804 22.5 19.75 22.5H5.75C5.21957 22.5 4.71086 22.2893 4.33579 21.9142C3.96071 21.5391 3.75 21.0304 3.75 20.5V9.5Z" stroke="#326942" stroke-width="1.7" stroke-linecap="round" stroke-linejoin="round"/>
</svg>
