<svg width="63" height="18" viewBox="0 0 63 18" fill="none" xmlns="http://www.w3.org/2000/svg">
<path d="M48.6999 5.14999H45.2999C45.0999 5.14999 44.8999 5.34999 44.7999 5.54999L43.3999 14.35C43.3999 14.55 43.4999 14.65 43.6999 14.65H45.4999C45.6999 14.65 45.7999 14.55 45.7999 14.35L46.1999 11.85C46.1999 11.65 46.3999 11.45 46.6999 11.45H47.7999C50.0999 11.45 51.3999 10.35 51.6999 8.14999C51.8999 7.24999 51.6999 6.44999 51.2999 5.94999C50.6999 5.44999 49.7999 5.14999 48.6999 5.14999ZM49.0999 8.44999C48.8999 9.64999 47.9999 9.64999 47.0999 9.64999H46.4999L46.8999 7.34999C46.8999 7.24999 46.9999 7.14999 47.1999 7.14999H47.3999C47.9999 7.14999 48.5999 7.14999 48.8999 7.54999C49.0999 7.64999 49.0999 7.94999 49.0999 8.44999Z" fill="#139AD6"/>
<path d="M24.1999 5.14999H20.7999C20.5999 5.14999 20.3999 5.34999 20.2999 5.54999L18.8999 14.35C18.8999 14.55 18.9999 14.65 19.1999 14.65H20.7999C20.9999 14.65 21.1999 14.45 21.2999 14.25L21.6999 11.85C21.6999 11.65 21.8999 11.45 22.1999 11.45H23.2999C25.5999 11.45 26.8999 10.35 27.1999 8.14999C27.3999 7.24999 27.1999 6.44999 26.7999 5.94999C26.1999 5.44999 25.3999 5.14999 24.1999 5.14999ZM24.5999 8.44999C24.3999 9.64999 23.4999 9.64999 22.5999 9.64999H22.0999L22.4999 7.34999C22.4999 7.24999 22.5999 7.14999 22.7999 7.14999H22.9999C23.5999 7.14999 24.1999 7.14999 24.4999 7.54999C24.5999 7.64999 24.6999 7.94999 24.5999 8.44999Z" fill="#263B80"/>
<path d="M34.5 8.34999H32.9C32.8 8.34999 32.6 8.44999 32.6 8.54999L32.5 9.04999L32.4 8.84999C32 8.34999 31.3 8.14999 30.5 8.14999C28.7 8.14999 27.1 9.54999 26.8 11.45C26.6 12.45 26.9 13.35 27.4 13.95C27.9 14.55 28.6 14.75 29.5 14.75C31 14.75 31.8 13.85 31.8 13.85L31.7 14.35C31.7 14.55 31.8 14.65 32 14.65H33.5C33.7 14.65 33.9 14.45 34 14.25L34.9 8.64999C34.8 8.54999 34.6 8.34999 34.5 8.34999ZM32.2 11.55C32 12.45 31.3 13.15 30.3 13.15C29.8 13.15 29.4 12.95 29.2 12.75C29 12.45 28.9 12.05 28.9 11.55C29 10.65 29.8 9.94999 30.7 9.94999C31.2 9.94999 31.5 10.15 31.8 10.35C32.1 10.65 32.2 11.15 32.2 11.55Z" fill="#263B80"/>
<path d="M58.8999 8.34999H57.2999C57.1999 8.34999 56.9999 8.44999 56.9999 8.54999L56.8999 9.04999L56.7999 8.84999C56.3999 8.34999 55.6999 8.14999 54.8999 8.14999C53.0999 8.14999 51.4999 9.54999 51.1999 11.45C50.9999 12.45 51.2999 13.35 51.7999 13.95C52.2999 14.55 52.9999 14.75 53.8999 14.75C55.3999 14.75 56.1999 13.85 56.1999 13.85L56.0999 14.35C56.0999 14.55 56.1999 14.65 56.3999 14.65H57.8999C58.0999 14.65 58.2999 14.45 58.3999 14.25L59.2999 8.64999C59.1999 8.54999 59.0999 8.34999 58.8999 8.34999ZM56.5999 11.55C56.3999 12.45 55.6999 13.15 54.6999 13.15C54.1999 13.15 53.7999 12.95 53.5999 12.75C53.3999 12.45 53.2999 12.05 53.2999 11.55C53.3999 10.65 54.1999 9.94999 55.0999 9.94999C55.5999 9.94999 55.8999 10.15 56.1999 10.35C56.5999 10.65 56.6999 11.15 56.5999 11.55Z" fill="#139AD6"/>
<path d="M43.2 8.34999H41.5C41.3 8.34999 41.2 8.44999 41.1 8.54999L38.9 11.95L37.9 8.74999C37.8 8.54999 37.7 8.44999 37.4 8.44999H35.8C35.6 8.44999 35.5 8.64999 35.5 8.84999L37.3 14.15L35.6 16.55C35.5 16.75 35.6 17.05 35.8 17.05H37.4C37.6 17.05 37.7 16.95 37.8 16.85L43.3 8.94999C43.6 8.64999 43.4 8.34999 43.2 8.34999Z" fill="#263B80"/>
<path d="M60.7999 5.45L59.3999 14.45C59.3999 14.65 59.4999 14.75 59.6999 14.75H61.0999C61.2999 14.75 61.4999 14.55 61.5999 14.35L62.9999 5.55C62.9999 5.35 62.8999 5.25 62.6999 5.25H61.0999C60.9999 5.15 60.8999 5.25 60.7999 5.45Z" fill="#139AD6"/>
<path d="M11.5 2.15C10.8 1.35 9.5 0.949997 7.7 0.949997H2.7C2.4 0.949997 2.1 1.25 2 1.55L0 14.65C0 14.95 0.2 15.15 0.4 15.15H3.5L4.3 10.25V10.45C4.4 10.15 4.7 9.85 5 9.85H6.5C9.4 9.85 11.6 8.65 12.3 5.35C12.3 5.25 12.3 5.15 12.3 5.05C12.2 5.05 12.2 5.05 12.3 5.05C12.4 3.75 12.2 2.95 11.5 2.15Z" fill="#263B80"/>
<path d="M12.2002 5.05C12.2002 5.15 12.2002 5.25 12.2002 5.35C11.5002 8.75 9.3002 9.85 6.4002 9.85H4.9002C4.6002 9.85 4.3002 10.15 4.2002 10.45L3.2002 16.55C3.2002 16.75 3.3002 16.95 3.6002 16.95H6.2002C6.5002 16.95 6.8002 16.75 6.8002 16.45V16.35L7.3002 13.25V13.05C7.3002 12.75 7.60019 12.55 7.9002 12.55H8.3002C10.8002 12.55 12.8002 11.55 13.3002 8.55C13.5002 7.35 13.4002 6.25 12.8002 5.55C12.7002 5.35 12.5002 5.15 12.2002 5.05Z" fill="#139AD6"/>
<path d="M11.4998 4.75C11.3998 4.75 11.2998 4.65 11.1998 4.65C11.0998 4.65 10.9998 4.65 10.8998 4.55C10.4998 4.45 10.0998 4.45 9.5998 4.45H5.6998C5.5998 4.45 5.4998 4.45 5.3998 4.55C5.1998 4.65 5.0998 4.85 5.0998 5.05L4.2998 10.25V10.45C4.3998 10.15 4.6998 9.85 4.9998 9.85H6.4998C9.3998 9.85 11.5998 8.65 12.2998 5.35C12.2998 5.25 12.2998 5.15 12.3998 5.05C12.1998 4.95 12.0998 4.85 11.8998 4.85C11.5998 4.75 11.5998 4.75 11.4998 4.75Z" fill="#232C65"/>
</svg>
