<svg width="16" height="16" viewBox="0 0 16 16" fill="none" xmlns="http://www.w3.org/2000/svg">
<path fill-rule="evenodd" clip-rule="evenodd" d="M6.66659 2.66667C4.45745 2.66667 2.66659 4.45753 2.66659 6.66667C2.66659 8.87581 4.45745 10.6667 6.66659 10.6667C8.87572 10.6667 10.6666 8.87581 10.6666 6.66667C10.6666 4.45753 8.87572 2.66667 6.66659 2.66667ZM1.33325 6.66667C1.33325 3.72115 3.72107 1.33333 6.66659 1.33333C9.6121 1.33333 11.9999 3.72115 11.9999 6.66667C11.9999 9.61219 9.6121 12 6.66659 12C3.72107 12 1.33325 9.61219 1.33325 6.66667ZM11.1952 11.1953C11.4555 10.9349 11.8776 10.9349 12.138 11.1953L14.4713 13.5286C14.7317 13.7889 14.7317 14.2111 14.4713 14.4714C14.211 14.7318 13.7889 14.7318 13.5285 14.4714L11.1952 12.1381C10.9348 11.8777 10.9348 11.4556 11.1952 11.1953Z" fill="#6A7282"/>
</svg>
