<svg width="29" height="29" viewBox="0 0 29 29" fill="none" xmlns="http://www.w3.org/2000/svg">
<path d="M22.4166 25V22.6667C22.4166 21.429 21.9249 20.242 21.0498 19.3668C20.1746 18.4916 18.9876 18 17.7499 18H10.7499C9.51224 18 8.32526 18.4916 7.45009 19.3668C6.57492 20.242 6.08325 21.429 6.08325 22.6667V25" fill="#93C29C"/>
<path d="M13.75 14.8333C16.3273 14.8333 18.4167 12.7439 18.4167 10.1666C18.4167 7.58928 16.3273 5.49994 13.75 5.49994C11.1727 5.49994 9.08333 7.58928 9.08333 10.1666C9.08333 12.7439 11.1727 14.8333 13.75 14.8333Z" fill="#93C29C"/>
<path d="M22.4166 25V22.6667C22.4166 21.429 21.9249 20.242 21.0498 19.3668C20.1746 18.4916 18.9876 18 17.7499 18H10.7499C9.51224 18 8.32526 18.4916 7.45009 19.3668C6.57492 20.242 6.08325 21.429 6.08325 22.6667V25H22.4166ZM18.4167 10.1666C18.4167 12.7439 16.3273 14.8333 13.75 14.8333C11.1727 14.8333 9.08333 12.7439 9.08333 10.1666C9.08333 7.58928 11.1727 5.49994 13.75 5.49994C16.3273 5.49994 18.4167 7.58928 18.4167 10.1666Z" stroke="#326942" stroke-width="1.7" stroke-linecap="round" stroke-linejoin="round"/>
</svg>
